<mxfile host="app.diagrams.net" modified="2023-11-07T12:31:04.104Z" agent="Mozilla/5.0 (Windows NT 10.0; Win64; x64) AppleWebKit/537.36 (KHTML, like Gecko) Chrome/119.0.0.0 Safari/537.36" etag="AhF1feEGtMlNYIySMmOy" version="22.0.8" type="device">
  <diagram name="Page-1" id="LX5_kg1HVEQrOpqKDcEm">
    <mxGraphModel dx="443" dy="1545" grid="1" gridSize="10" guides="1" tooltips="1" connect="1" arrows="1" fold="1" page="1" pageScale="1" pageWidth="827" pageHeight="1169" math="0" shadow="0">
      <root>
        <mxCell id="0" />
        <mxCell id="1" parent="0" />
        <mxCell id="L3t7BHy69Arn2iJGAOFw-1" value="&lt;font style=&quot;font-size: 20px;&quot; face=&quot;Times New Roman&quot;&gt;Start&lt;/font&gt;" style="ellipse;whiteSpace=wrap;html=1;" parent="1" vertex="1">
          <mxGeometry x="387" y="-1080" width="110" height="60" as="geometry" />
        </mxCell>
        <mxCell id="L3t7BHy69Arn2iJGAOFw-14" value="" style="edgeStyle=orthogonalEdgeStyle;rounded=0;orthogonalLoop=1;jettySize=auto;html=1;" parent="1" source="L3t7BHy69Arn2iJGAOFw-3" target="L3t7BHy69Arn2iJGAOFw-5" edge="1">
          <mxGeometry relative="1" as="geometry" />
        </mxCell>
        <mxCell id="L3t7BHy69Arn2iJGAOFw-3" value="&lt;font face=&quot;Times New Roman&quot; style=&quot;font-size: 20px;&quot;&gt;Clean the dataset and perform transformation&lt;/font&gt;" style="rounded=0;whiteSpace=wrap;html=1;" parent="1" vertex="1">
          <mxGeometry x="300" y="-850" width="280" height="60" as="geometry" />
        </mxCell>
        <mxCell id="L3t7BHy69Arn2iJGAOFw-13" value="" style="edgeStyle=orthogonalEdgeStyle;rounded=0;orthogonalLoop=1;jettySize=auto;html=1;" parent="1" source="L3t7BHy69Arn2iJGAOFw-4" target="L3t7BHy69Arn2iJGAOFw-3" edge="1">
          <mxGeometry relative="1" as="geometry" />
        </mxCell>
        <mxCell id="L3t7BHy69Arn2iJGAOFw-4" value="&lt;font face=&quot;Times New Roman&quot; style=&quot;font-size: 20px;&quot;&gt;Load the dataset&lt;br&gt;&lt;/font&gt;" style="rounded=0;whiteSpace=wrap;html=1;" parent="1" vertex="1">
          <mxGeometry x="300" y="-970" width="280" height="60" as="geometry" />
        </mxCell>
        <mxCell id="L3t7BHy69Arn2iJGAOFw-15" value="" style="edgeStyle=orthogonalEdgeStyle;rounded=0;orthogonalLoop=1;jettySize=auto;html=1;" parent="1" source="L3t7BHy69Arn2iJGAOFw-5" target="L3t7BHy69Arn2iJGAOFw-6" edge="1">
          <mxGeometry relative="1" as="geometry" />
        </mxCell>
        <mxCell id="L3t7BHy69Arn2iJGAOFw-5" value="&lt;font face=&quot;Times New Roman&quot; style=&quot;font-size: 20px;&quot;&gt;Feed data into Model &lt;br&gt;and train the model&lt;/font&gt;" style="rounded=0;whiteSpace=wrap;html=1;" parent="1" vertex="1">
          <mxGeometry x="300" y="-730" width="280" height="60" as="geometry" />
        </mxCell>
        <mxCell id="L3t7BHy69Arn2iJGAOFw-16" value="" style="edgeStyle=orthogonalEdgeStyle;rounded=0;orthogonalLoop=1;jettySize=auto;html=1;" parent="1" source="L3t7BHy69Arn2iJGAOFw-6" edge="1">
          <mxGeometry relative="1" as="geometry">
            <mxPoint x="440" y="-500" as="targetPoint" />
          </mxGeometry>
        </mxCell>
        <mxCell id="L3t7BHy69Arn2iJGAOFw-6" value="&lt;font style=&quot;font-size: 20px;&quot; face=&quot;Times New Roman&quot;&gt;Test the accuracy &lt;br&gt;of the model&lt;/font&gt;" style="rounded=0;whiteSpace=wrap;html=1;" parent="1" vertex="1">
          <mxGeometry x="300" y="-610" width="280" height="60" as="geometry" />
        </mxCell>
        <mxCell id="L3t7BHy69Arn2iJGAOFw-18" value="" style="edgeStyle=orthogonalEdgeStyle;rounded=0;orthogonalLoop=1;jettySize=auto;html=1;" parent="1" edge="1">
          <mxGeometry relative="1" as="geometry">
            <mxPoint x="439" y="-419.9999999999998" as="sourcePoint" />
            <mxPoint x="439" y="-359.9999999999998" as="targetPoint" />
          </mxGeometry>
        </mxCell>
        <mxCell id="L3t7BHy69Arn2iJGAOFw-8" value="&lt;font style=&quot;font-size: 20px;&quot; face=&quot;Times New Roman&quot;&gt;Use the trained model &lt;br&gt;to generate response to user&#39;s input&lt;/font&gt;" style="rounded=0;whiteSpace=wrap;html=1;" parent="1" vertex="1">
          <mxGeometry x="300" y="-500" width="280" height="90" as="geometry" />
        </mxCell>
        <mxCell id="L3t7BHy69Arn2iJGAOFw-10" value="&lt;font style=&quot;font-size: 20px;&quot; face=&quot;Times New Roman&quot;&gt;Stop&lt;/font&gt;" style="ellipse;whiteSpace=wrap;html=1;" parent="1" vertex="1">
          <mxGeometry x="385" y="-360" width="110" height="60" as="geometry" />
        </mxCell>
        <mxCell id="L3t7BHy69Arn2iJGAOFw-12" value="" style="endArrow=classic;html=1;rounded=0;exitX=0.5;exitY=1;exitDx=0;exitDy=0;entryX=0.518;entryY=-0.003;entryDx=0;entryDy=0;entryPerimeter=0;" parent="1" edge="1">
          <mxGeometry width="50" height="50" relative="1" as="geometry">
            <mxPoint x="440" y="-1020" as="sourcePoint" />
            <mxPoint x="440.03999999999996" y="-970.1799999999998" as="targetPoint" />
          </mxGeometry>
        </mxCell>
      </root>
    </mxGraphModel>
  </diagram>
</mxfile>
